<svg width="34" height="35" viewBox="0 0 34 35" fill="none" xmlns="http://www.w3.org/2000/svg">
<path fill-rule="evenodd" clip-rule="evenodd" d="M24.3013 13.0186L23.2232 14.2399C22.8267 14.6891 22.2151 14.797 21.857 14.4809L17.9676 11.0475C17.6095 10.7314 17.6407 10.1111 18.0372 9.66196L19.1153 8.44066C12.0939 3.33486 5.90111 2.50457 6.95631 1.30922C8.05213 0.0678583 18.3942 1.28179 24.2745 5.20947L24.3591 5.11363C24.7556 4.66448 25.3672 4.55657 25.7252 4.87262L27.0217 6.0171C27.3797 6.33314 27.3486 6.95345 26.9521 7.4026L26.868 7.49788C31.4943 12.846 33.982 22.9576 32.8861 24.1989C31.8309 25.3943 30.2388 19.3523 24.3013 13.0186ZM17.82 12.9568L19.9808 14.8642C20.3786 15.2154 20.3665 15.8791 19.9538 16.3466L4.63391 33.7012C3.60209 34.8701 1.95944 35.1059 0.964954 34.228C-0.0295364 33.3501 0.00072459 31.6909 1.03254 30.5221L16.3524 13.1675C16.7651 12.7 17.4222 12.6056 17.82 12.9568Z" fill="#F9F9F9"/>
</svg>
